{"title":"Better.Off.Dead.1985.720p.BRRip.XviD.AC3-PsychoLogic","uid":6597361,"size":2537359139,"categoryP":"video","categoryS":"hd___movies","magnet":"?xt=urn:btih:b02f8c236a7eca3f2389e9573d396770e018f63f&amp;dn=Better.Off.Dead.1985.720p.BRRip.XviD.AC3-PsychoLogic&amp;tr=udp%3A%2F%2Ftracker.openbittorrent.com%3A80&amp;tr=udp%3A%2F%2Fopen.demonii.com%3A1337&amp;tr=udp%3A%2F%2Ftracker.coppersurfer.tk%3A6969&amp;tr=udp%3A%2F%2Fexodus.desync.com%3A6969","seeders":0,"leechers":1,"uploader":"PsychoLogic","files":9,"time":1313070909,"description":"Release Information:\n\nBetter.Off.Dead.1985.720p.BRRip.XviD.AC3-PsychoLogic\n\nSource                           : Better.Off.Dead.1985.720p.BluRay.X264-AMIABLE\nSubtitles                        : English, French, Greek, Hungarian, Swedish\nLanguage                         : English\nEncoded By                       : PsychoLogic\nSample Included                  : Yes\n\nMovie Information                : http://www.imdb.com/title/tt0088794/\nGenre                            : Comedy | Romance \nDirector                         : Savage Steve Holland\nCast                             : John Cusack, David Ogden Stiers and Kim Darby\nPlot                             : A teenager has to deal with his girlfriend dumping him among family crises, homicidal paper boys, and a rival skier. \n\nGeneral\nFormat                           : AVI\nFormat/Info                      : Audio Video Interleave\nFormat profile                   : OpenDML\nFile size                        : 2.34 GiB\nDuration                         : 1h 36mn\nOverall bit rate                 : 3 459 Kbps\nWriting application              : VirtualDubMod 1.5.10.2 (build 2542/release)\nWriting library                  : VirtualDubMod build 2542/release\n\nVideo\nID                               : 0\nFormat                           : MPEG-4 Visual\nFormat profile                   : Advanced Simple@L5\nFormat settings, BVOP            : 2\nFormat settings, QPel            : No\nFormat settings, GMC             : No warppoints\nFormat settings, Matrix          : Default (H.263)\nCodec ID                         : XVID\nCodec ID/Hint                    : XviD\nDuration                         : 1h 36mn\nBit rate                         : 2 999 Kbps\nWidth                            : 1 280 pixels\nHeight                           : 720 pixels\nDisplay aspect ratio             : 16:9\nFrame rate                       : 23.976 fps\nColor space                      : YUV\nChroma subsampling               : 4:2:0\nBit depth                        : 8 bits\nScan type                        : Progressive\nCompression mode                 : Lossy\nBits/(Pixel*Frame)               : 0.136\nStream size                      : 2.03 GiB (87%)\nWriting library                  : XviD 1.2.1 (UTC 2008-12-04)\n\nAudio\nID                               : 1\nFormat                           : AC-3\nFormat/Info                      : Audio Coding 3\nMode extension                   : CM (complete main)\nCodec ID                         : 2000\nDuration                         : 1h 36mn\nBit rate mode                    : Constant\nBit rate                         : 448 Kbps\nChannel(s)                       : 6 channels\nChannel positions                : Front: L C R, Side: L R, LFE\nSampling rate                    : 48.0 KHz\nBit depth                        : 16 bits\nCompression mode                 : Lossy\nStream size                      : 311 MiB (13%)\nAlignment                        : Split accross interleaves\nInterleave, duration             : 42 ms (1.00 video frame)\nInterleave, preload duration     : 500 ms\n\n","torrent":{"xt":"urn:btih:b02f8c236a7eca3f2389e9573d396770e018f63f","amp;dn":"Better.Off.Dead.1985.720p.BRRip.XviD.AC3-PsychoLogic","amp;tr":["udp%3A%2F%2Ftracker.openbittorrent.com%3A80","udp%3A%2F%2Fopen.demonii.com%3A1337","udp%3A%2F%2Ftracker.coppersurfer.tk%3A6969","udp%3A%2F%2Fexodus.desync.com%3A6969"],"infoHash":"b02f8c236a7eca3f2389e9573d396770e018f63f","infoHashBuffer":{"type":"Buffer","data":[176,47,140,35,106,126,202,63,35,137,233,87,61,57,103,112,224,24,246,63]},"announce":[],"urlList":[]}}